<?xml version="1.0" standalone="no"?>
<!DOCTYPE svg PUBLIC "-//W3C//DTD SVG 20010904//EN"
 "http://www.w3.org/TR/2001/REC-SVG-20010904/DTD/svg10.dtd">
<svg version="1.0" xmlns="http://www.w3.org/2000/svg"
 width="672.000000pt" height="608.000000pt" viewBox="0 0 672.000000 608.000000"
 preserveAspectRatio="xMidYMid meet">

<g transform="translate(0.000000,608.000000) scale(0.100000,-0.100000)"
fill="#000000" stroke="none">
<path d="M3135 5893 c-38 -2 -74 -8 -79 -14 -6 -5 -28 -9 -50 -9 -52 1 -250
-36 -336 -61 -36 -11 -72 -19 -80 -19 -8 -1 -53 -14 -100 -31 -47 -17 -105
-37 -130 -45 -25 -8 -67 -25 -95 -38 -27 -13 -88 -43 -135 -65 -345 -165 -650
-397 -913 -694 -84 -95 -240 -302 -259 -342 -6 -14 -15 -25 -20 -25 -4 0 -8
-5 -8 -11 0 -6 -13 -30 -28 -53 -38 -56 -192 -368 -192 -388 0 -9 -4 -19 -8
-22 -5 -3 -21 -43 -35 -88 -67 -214 -87 -282 -87 -301 0 -12 -8 -53 -19 -91
-32 -119 -46 -311 -45 -601 0 -273 7 -344 55 -555 6 -25 15 -67 21 -95 16 -80
91 -299 134 -393 13 -29 24 -55 24 -59 0 -10 103 -217 116 -233 6 -8 20 -31
31 -50 58 -110 185 -284 319 -441 89 -104 297 -304 317 -304 7 -1 59 31 117
71 338 230 710 392 1059 461 l92 18 14 50 c22 75 55 236 55 269 0 19 4 27 13
23 216 -83 442 -113 633 -84 80 13 230 53 310 84 8 3 16 -21 24 -69 7 -40 23
-119 37 -175 23 -91 28 -103 47 -103 41 0 300 -68 420 -110 245 -87 446 -188
684 -347 l142 -95 58 50 c113 100 304 304 398 427 28 37 129 189 186 280 33
53 161 313 156 318 -1 2 2 10 9 18 9 11 84 213 97 264 2 6 6 17 9 25 3 8 10
35 17 60 12 51 15 59 23 80 3 8 8 35 11 60 3 25 16 95 28 155 40 205 36 731
-8 955 -29 147 -110 435 -138 492 -9 17 -16 35 -16 39 0 28 -137 300 -224 444
-122 204 -335 462 -511 620 -115 103 -308 251 -404 310 -9 6 -34 21 -56 35
-59 38 -310 162 -390 194 -122 49 -357 123 -455 144 -175 38 -201 42 -245 42
-24 0 -56 5 -72 11 -28 11 -382 19 -518 12z m475 -1378 c555 -91 1014 -368
1176 -710 62 -130 75 -193 81 -391 15 -465 -123 -932 -330 -1119 -185 -168
-569 -380 -829 -459 -282 -86 -548 -70 -842 49 -209 85 -496 250 -658 381 -37
30 -88 83 -113 118 -210 294 -318 951 -214 1301 107 360 487 651 1033 790 72
18 172 38 221 44 50 6 104 13 120 15 54 8 258 -4 355 -19z m-1996 -88 c20 -16
41 -45 52 -73 15 -40 16 -52 5 -95 -12 -46 -11 -52 12 -92 28 -47 73 -173 82
-229 3 -22 11 -36 18 -33 7 2 27 6 45 9 l32 6 -31 -62 c-115 -228 -129 -720
-29 -1041 12 -38 19 -71 16 -74 -9 -9 -188 36 -243 61 -65 30 -79 52 -95 146
-17 101 -17 657 0 760 15 90 38 117 132 151 l62 23 -5 53 c-3 32 -21 87 -43
133 l-37 79 -42 -6 c-113 -15 -202 79 -181 192 8 42 49 93 91 111 45 21 117
12 159 -19z m3639 19 c18 -7 46 -28 62 -45 27 -29 30 -38 30 -101 0 -65 -2
-71 -34 -104 -41 -43 -90 -60 -141 -52 -36 6 -40 3 -59 -28 -27 -43 -58 -131
-66 -189 l-7 -45 55 -17 c73 -23 115 -49 127 -80 5 -13 15 -74 21 -135 14
-135 6 -672 -11 -742 -14 -57 -47 -88 -126 -118 -61 -22 -202 -56 -208 -49 -3
2 7 42 20 89 41 140 56 246 61 431 8 259 -19 442 -87 588 -34 73 -34 72 -17
67 6 -3 27 -7 45 -10 30 -5 32 -4 32 24 0 43 45 177 79 234 25 42 27 53 19 78
-18 51 -5 125 28 160 52 55 115 71 177 44z"/>
<path d="M2444 4140 c-108 -54 -210 -134 -267 -209 -40 -53 -48 -70 -45 -100
l3 -36 51 0 c158 1 483 278 432 368 -17 31 -87 22 -174 -23z"/>
<path d="M3208 3799 c-137 -11 -270 -35 -443 -79 -319 -81 -570 -203 -621
-302 -38 -73 -27 -273 23 -433 27 -87 92 -219 123 -253 50 -53 284 -85 766
-103 531 -21 1173 17 1326 78 71 28 165 221 197 407 14 76 14 230 1 278 -45
161 -588 365 -1085 408 -132 11 -146 11 -287 -1z m-233 -343 c72 -36 146 -117
174 -191 19 -49 22 -74 19 -140 -8 -132 -66 -224 -180 -285 -53 -28 -76 -34
-143 -38 -106 -5 -178 21 -252 91 -78 73 -107 140 -108 247 0 73 4 94 28 145
45 97 113 155 222 192 61 20 175 10 240 -21z m1049 6 c60 -27 142 -105 174
-167 24 -44 27 -61 27 -150 0 -118 -21 -171 -95 -245 -64 -65 -127 -92 -225
-98 -106 -5 -178 21 -252 91 -78 73 -107 140 -108 247 0 72 4 94 26 141 47
100 115 159 224 196 54 18 171 10 229 -15z"/>
<path d="M2750 3306 c-19 -12 -21 -15 -7 -16 48 -1 75 -80 39 -113 -26 -24
-78 -22 -95 4 l-15 21 -7 -21 c-8 -27 10 -92 36 -125 29 -37 71 -56 122 -56
147 0 206 203 85 293 -35 26 -123 33 -158 13z"/>
<path d="M3810 3306 c-19 -12 -21 -15 -7 -16 48 -1 75 -80 39 -113 -26 -24
-78 -22 -95 4 l-15 21 -7 -21 c-8 -27 10 -92 36 -125 29 -37 71 -56 122 -56
148 0 206 203 85 293 -35 26 -123 33 -158 13z"/>
<path d="M3530 2256 c-52 -30 -60 -31 -170 -31 -104 0 -121 3 -172 27 -67 31
-72 24 -29 -45 86 -135 266 -150 371 -31 29 33 66 103 58 108 -2 1 -28 -12
-58 -28z"/>
<path d="M3165 929 c-236 -29 -361 -81 -521 -217 -72 -61 -74 -64 -74 -108 0
-58 25 -178 53 -256 20 -54 26 -63 59 -74 48 -17 257 -54 378 -67 112 -13 463
-15 570 -4 194 20 416 68 437 95 23 30 64 174 72 256 l8 81 -36 38 c-52 55
-194 148 -285 186 -126 52 -230 71 -416 76 -91 2 -201 -1 -245 -6z m253 -115
c26 -18 28 -50 5 -76 -20 -22 -51 -23 -75 -1 -24 21 -23 48 2 73 24 24 38 25
68 4z m-364 -50 c20 -20 21 -58 1 -74 -34 -28 -95 -7 -95 33 0 48 61 74 94 41z
m738 -31 c22 -20 23 -41 1 -65 -18 -20 -63 -24 -81 -6 -7 7 -12 24 -12 38 0
14 5 31 12 38 17 17 58 15 80 -5z m-964 -205 c28 -28 1 -98 -36 -98 -25 0 -52
31 -52 60 0 33 17 50 50 50 14 0 31 -5 38 -12z m1116 -64 c37 -37 1 -103 -49
-90 -14 4 -31 17 -37 31 -23 52 46 100 86 59z"/>
</g>
</svg>
